<?xml version="1.0" encoding="UTF-8" standalone="no"?>
<!-- Created with Inkscape (http://www.inkscape.org/) -->

<svg
   width="68.791664mm"
   height="68.791664mm"
   viewBox="0 0 68.791664 68.791664"
   version="1.1"
   id="svg5"
   inkscape:version="1.1.2 (b8e25be833, 2022-02-05)"
   sodipodi:docname="blason.svg"
   inkscape:export-filename="C:\Users\alain\Desktop\triskalya\blason.png"
   inkscape:export-xdpi="96"
   inkscape:export-ydpi="96"
   xmlns:inkscape="http://www.inkscape.org/namespaces/inkscape"
   xmlns:sodipodi="http://sodipodi.sourceforge.net/DTD/sodipodi-0.dtd"
   xmlns="http://www.w3.org/2000/svg"
   xmlns:svg="http://www.w3.org/2000/svg">
  <sodipodi:namedview
     id="namedview7"
     pagecolor="#ffffff"
     bordercolor="#666666"
     borderopacity="1.0"
     inkscape:pageshadow="2"
     inkscape:pageopacity="0.0"
     inkscape:pagecheckerboard="0"
     inkscape:document-units="mm"
     showgrid="true"
     inkscape:snap-bbox="true"
     inkscape:bbox-nodes="true"
     fit-margin-top="0"
     fit-margin-left="0"
     fit-margin-right="0"
     fit-margin-bottom="0"
     inkscape:zoom="2.9362514"
     inkscape:cx="85.142573"
     inkscape:cy="137.76068"
     inkscape:window-width="2400"
     inkscape:window-height="1261"
     inkscape:window-x="2391"
     inkscape:window-y="-9"
     inkscape:window-maximized="1"
     inkscape:current-layer="layer1">
    <inkscape:grid
       type="xygrid"
       id="grid824"
       originx="8.6999997e-07"
       originy="2.0666666e-07" />
  </sodipodi:namedview>
  <defs
     id="defs2" />
  <g
     inkscape:label="Calque 1"
     inkscape:groupmode="layer"
     id="layer1">
    <circle
       style="fill:#ffffff;stroke-width:1;stroke-linecap:round;stroke-linejoin:round;paint-order:markers fill stroke"
       id="path3053"
       cx="34.395832"
       cy="34.395832"
       r="34.395832" />
    <path
       id="path848"
       style="fill:#ff0000;stroke-width:1;stroke-linecap:round;stroke-linejoin:round;paint-order:markers fill stroke"
       d="M 34.395832,-2.0666667e-7 A 34.395833,34.395833 0 0 0 -8.7e-7,34.395832 34.395833,34.395833 0 0 0 34.395832,68.791665 Z" />
    <path
       id="path848-2"
       style="fill:#0055d4;stroke-width:1;stroke-linecap:round;stroke-linejoin:round;paint-order:markers fill stroke"
       d="M 34.395832,-2.0666667e-7 V 34.395832 H 68.791665 A 34.395833,34.395833 0 0 0 34.395832,-2.0666667e-7 Z" />
    <path
       id="path848-2-4"
       style="fill:#37c837;stroke-width:1;stroke-linecap:round;stroke-linejoin:round;paint-order:markers fill stroke"
       d="M 51.593749,34.395832 34.395832,68.791665 A 34.395833,34.395833 0 0 0 61.909914,55.027649 Z" />
    <path
       id="rect1496-2-0"
       style="fill:#ffffff;stroke-width:1;stroke-linecap:round;stroke-linejoin:round;paint-order:markers fill stroke"
       d="m 13.890625,15.213541 a 1.984375,1.984375 0 0 0 -1.984375,1.984375 1.984375,1.984375 0 0 0 1.984375,1.984375 1.984375,1.984375 0 0 0 1.984375,-1.984375 1.984375,1.984375 0 0 0 -1.984375,-1.984375 z m 9.260416,0 a 1.984375,1.984375 0 0 0 -1.984374,1.984375 1.984375,1.984375 0 0 0 1.984374,1.984375 1.984375,1.984375 0 0 0 1.984375,-1.984375 1.984375,1.984375 0 0 0 -1.984375,-1.984375 z M 7.9375,21.166666 v 5.291667 3.96875 a 3.96875,3.96875 0 0 1 3.96875,-3.96875 H 15.875 v 23.812499 a 3.96875,3.96875 0 0 1 -3.96875,3.96875 h 3.96875 5.291667 3.968749 a 3.96875,3.96875 0 0 1 -3.968749,-3.96875 V 26.458333 h 3.968749 a 3.96875,3.96875 0 0 1 3.96875,3.96875 v -3.96875 -5.291667 z" />
    <path
       sodipodi:type="star"
       style="fill:#ffcc00;stroke-width:3.77953;stroke-linecap:round;stroke-linejoin:round;paint-order:markers fill stroke"
       id="path1793"
       inkscape:flatsided="false"
       sodipodi:sides="5"
       sodipodi:cx="225"
       sodipodi:cy="100"
       sodipodi:r1="35"
       sodipodi:r2="23.65452"
       sodipodi:arg1="1.5707963"
       sodipodi:arg2="0.17668973"
       inkscape:rounded="0"
       inkscape:randomized="0"
       d="m 225,135 23.28624,-30.8422 -56.57322,6.6578 36.52852,12.61576 -23.81402,-51.746954 -0.71038,38.639174 41.85534,-38.639175 -36.96755,11.264557 49.68205,27.866628 -22.13683,-31.677291 z"
       transform="matrix(0.3617532,0,0,-0.3617532,-31.013499,56.465386)"
       inkscape:transform-center-y="-1.2090525" />
  </g>
</svg>
